# xmcd
#
# Track frame offsets:
#	150
#	13292
#	31702
#	44070
#	63122
#
# Disc length: 1078 seconds
#
# Revision: 0
# Processed by: cddbd v1.5.1PL0 Copyright (c) Steve Scherf et al.
# Submitted via: dBpowerAMP V4.0
#
DISCID=3a043405
DTITLE=Tumbleweed - Fivehighhorses
DYEAR=1900
DGENRE=Country
TTITLE0=By The Balls
TTITLE1=On The Road
TTITLE2=Long Way Home
TTITLE3=Mama's Song
TTITLE4=Lord Have Mercy
EXTD=
EXTT0=
EXTT1=
EXTT2=
EXTT3=
EXTT4=
PLAYORDER=
